<?xml version="1.0" encoding="UTF-8"?>
<!--Generator: Apple Native CoreSVG 175-->
<!DOCTYPE svg
PUBLIC "-//W3C//DTD SVG 1.1//EN"
       "http://www.w3.org/Graphics/SVG/1.1/DTD/svg11.dtd">
<svg version="1.1" xmlns="http://www.w3.org/2000/svg" xmlns:xlink="http://www.w3.org/1999/xlink" width="3300" height="2200">
 <!--glyph: "", point size: 100.0, font version: "17.1d1e1", template writer version: "65.1"-->
 <g id="Notes">
  <rect height="2200" id="artboard" style="fill:white;opacity:1" width="3300" x="0" y="0"/>
  <line style="fill:none;stroke:black;opacity:1;stroke-width:0.5;" x1="263" x2="3036" y1="292" y2="292"/>
  <text style="stroke:none;fill:black;font-family:sans-serif;font-size:13;font-weight:bold;" transform="matrix(1 0 0 1 263 322)">Weight/Scale Variations</text>
  <text style="stroke:none;fill:black;font-family:sans-serif;font-size:13;text-anchor:middle;" transform="matrix(1 0 0 1 559.711 322)">Ultralight</text>
  <text style="stroke:none;fill:black;font-family:sans-serif;font-size:13;text-anchor:middle;" transform="matrix(1 0 0 1 856.422 322)">Thin</text>
  <text style="stroke:none;fill:black;font-family:sans-serif;font-size:13;text-anchor:middle;" transform="matrix(1 0 0 1 1153.13 322)">Light</text>
  <text style="stroke:none;fill:black;font-family:sans-serif;font-size:13;text-anchor:middle;" transform="matrix(1 0 0 1 1449.84 322)">Regular</text>
  <text style="stroke:none;fill:black;font-family:sans-serif;font-size:13;text-anchor:middle;" transform="matrix(1 0 0 1 1746.56 322)">Medium</text>
  <text style="stroke:none;fill:black;font-family:sans-serif;font-size:13;text-anchor:middle;" transform="matrix(1 0 0 1 2043.27 322)">Semibold</text>
  <text style="stroke:none;fill:black;font-family:sans-serif;font-size:13;text-anchor:middle;" transform="matrix(1 0 0 1 2339.98 322)">Bold</text>
  <text style="stroke:none;fill:black;font-family:sans-serif;font-size:13;text-anchor:middle;" transform="matrix(1 0 0 1 2636.69 322)">Heavy</text>
  <text style="stroke:none;fill:black;font-family:sans-serif;font-size:13;text-anchor:middle;" transform="matrix(1 0 0 1 2933.4 322)">Black</text>
  <line style="fill:none;stroke:black;opacity:1;stroke-width:0.5;" x1="263" x2="3036" y1="1903" y2="1903"/>
  <g transform="matrix(1 0 0 1 263 1933)">
   <path d="M9.24805 0.830078Q10.8691 0.830078 12.2949 0.214844Q13.7207-0.400391 14.8096-1.49414Q15.8984-2.58789 16.5186-4.01367Q17.1387-5.43945 17.1387-7.05078Q17.1387-8.66211 16.5186-10.0879Q15.8984-11.5137 14.8047-12.6074Q13.7109-13.7012 12.2852-14.3164Q10.8594-14.9316 9.23828-14.9316Q7.62695-14.9316 6.20117-14.3164Q4.77539-13.7012 3.69141-12.6074Q2.60742-11.5137 1.9873-10.0879Q1.36719-8.66211 1.36719-7.05078Q1.36719-5.43945 1.9873-4.01367Q2.60742-2.58789 3.69629-1.49414Q4.78516-0.400391 6.21094 0.214844Q7.63672 0.830078 9.24805 0.830078ZM9.24805-0.654297Q7.91992-0.654297 6.7627-1.14746Q5.60547-1.64062 4.73145-2.51953Q3.85742-3.39844 3.36426-4.56055Q2.87109-5.72266 2.87109-7.05078Q2.87109-8.37891 3.35938-9.54102Q3.84766-10.7031 4.72168-11.582Q5.5957-12.4609 6.75293-12.9541Q7.91016-13.4473 9.23828-13.4473Q10.5762-13.4473 11.7334-12.9541Q12.8906-12.4609 13.7695-11.582Q14.6484-10.7031 15.1465-9.54102Q15.6445-8.37891 15.6445-7.05078Q15.6445-5.72266 15.1514-4.56055Q14.6582-3.39844 13.7842-2.51953Q12.9102-1.64062 11.748-1.14746Q10.5859-0.654297 9.24805-0.654297ZM5.6543-7.05078Q5.6543-6.72852 5.85938-6.52832Q6.06445-6.32812 6.40625-6.32812L8.51562-6.32812L8.51562-4.20898Q8.51562-3.88672 8.71094-3.67676Q8.90625-3.4668 9.23828-3.4668Q9.56055-3.4668 9.77051-3.67676Q9.98047-3.88672 9.98047-4.20898L9.98047-6.32812L12.0898-6.32812Q12.4219-6.32812 12.627-6.52832Q12.832-6.72852 12.832-7.05078Q12.832-7.38281 12.627-7.58789Q12.4219-7.79297 12.0898-7.79297L9.98047-7.79297L9.98047-9.90234Q9.98047-10.2344 9.77051-10.4443Q9.56055-10.6543 9.23828-10.6543Q8.90625-10.6543 8.71094-10.4443Q8.51562-10.2344 8.51562-9.90234L8.51562-7.79297L6.40625-7.79297Q6.06445-7.79297 5.85938-7.58789Q5.6543-7.38281 5.6543-7.05078Z"/>
  </g>
  <g transform="matrix(1 0 0 1 281.867 1933)">
   <path d="M11.709 2.91016Q13.75 2.91016 15.5518 2.12891Q17.3535 1.34766 18.7305-0.0292969Q20.1074-1.40625 20.8887-3.20801Q21.6699-5.00977 21.6699-7.05078Q21.6699-9.0918 20.8887-10.8936Q20.1074-12.6953 18.7305-14.0723Q17.3535-15.4492 15.5469-16.2305Q13.7402-17.0117 11.6992-17.0117Q9.6582-17.0117 7.85645-16.2305Q6.05469-15.4492 4.68262-14.0723Q3.31055-12.6953 2.5293-10.8936Q1.74805-9.0918 1.74805-7.05078Q1.74805-5.00977 2.5293-3.20801Q3.31055-1.40625 4.6875-0.0292969Q6.06445 1.34766 7.86621 2.12891Q9.66797 2.91016 11.709 2.91016ZM11.709 1.25Q9.98047 1.25 8.47656 0.605469Q6.97266-0.0390625 5.83496-1.17676Q4.69727-2.31445 4.05762-3.81836Q3.41797-5.32227 3.41797-7.05078Q3.41797-8.7793 4.05762-10.2832Q4.69727-11.7871 5.83008-12.9297Q6.96289-14.0723 8.4668-14.7119Q9.9707-15.3516 11.6992-15.3516Q13.4277-15.3516 14.9316-14.7119Q16.4355-14.0723 17.5781-12.9297Q18.7207-11.7871 19.3652-10.2832Q20.0098-8.7793 20.0098-7.05078Q20.0098-5.32227 19.3701-3.81836Q18.7305-2.31445 17.5928-1.17676Q16.4551-0.0390625 14.9463 0.605469Q13.4375 1.25 11.709 1.25ZM7.17773-7.05078Q7.17773-6.69922 7.41211-6.47461Q7.64648-6.25 8.01758-6.25L10.8887-6.25L10.8887-3.36914Q10.8887-2.99805 11.1133-2.76855Q11.3379-2.53906 11.6895-2.53906Q12.0605-2.53906 12.29-2.76855Q12.5195-2.99805 12.5195-3.36914L12.5195-6.25L15.4004-6.25Q15.7715-6.25 16.001-6.47461Q16.2305-6.69922 16.2305-7.05078Q16.2305-7.42188 16.001-7.65137Q15.7715-7.88086 15.4004-7.88086L12.5195-7.88086L12.5195-10.752Q12.5195-11.1328 12.29-11.3623Q12.0605-11.5918 11.6895-11.5918Q11.3379-11.5918 11.1133-11.3574Q10.8887-11.123 10.8887-10.752L10.8887-7.88086L8.01758-7.88086Q7.63672-7.88086 7.40723-7.65137Q7.17773-7.42188 7.17773-7.05078Z"/>
  </g>
  <g transform="matrix(1 0 0 1 305.646 1933)">
   <path d="M14.9707 5.66406Q17.0605 5.66406 18.96 5.01465Q20.8594 4.36523 22.4512 3.19336Q24.043 2.02148 25.2197 0.429688Q26.3965-1.16211 27.0459-3.06641Q27.6953-4.9707 27.6953-7.05078Q27.6953-9.14062 27.0459-11.04Q26.3965-12.9395 25.2197-14.5312Q24.043-16.123 22.4512-17.2998Q20.8594-18.4766 18.9551-19.126Q17.0508-19.7754 14.9609-19.7754Q12.8711-19.7754 10.9717-19.126Q9.07227-18.4766 7.48535-17.2998Q5.89844-16.123 4.72168-14.5312Q3.54492-12.9395 2.90039-11.04Q2.25586-9.14062 2.25586-7.05078Q2.25586-4.9707 2.90527-3.06641Q3.55469-1.16211 4.72656 0.429688Q5.89844 2.02148 7.49023 3.19336Q9.08203 4.36523 10.9814 5.01465Q12.8809 5.66406 14.9707 5.66406ZM14.9707 3.84766Q13.1641 3.84766 11.5283 3.2959Q9.89258 2.74414 8.53516 1.74805Q7.17773 0.751953 6.17676-0.610352Q5.17578-1.97266 4.62891-3.6084Q4.08203-5.24414 4.08203-7.05078Q4.08203-8.86719 4.62891-10.5029Q5.17578-12.1387 6.17188-13.501Q7.16797-14.8633 8.52539-15.8594Q9.88281-16.8555 11.5186-17.4023Q13.1543-17.9492 14.9609-17.9492Q16.7773-17.9492 18.4131-17.4023Q20.0488-16.8555 21.4111-15.8594Q22.7734-14.8633 23.7695-13.501Q24.7656-12.1387 25.3174-10.5029Q25.8691-8.86719 25.8691-7.05078Q25.8789-5.24414 25.332-3.6084Q24.7852-1.97266 23.7842-0.610352Q22.7832 0.751953 21.4209 1.74805Q20.0586 2.74414 18.4229 3.2959Q16.7871 3.84766 14.9707 3.84766ZM9.19922-7.05078Q9.19922-6.66992 9.45801-6.4209Q9.7168-6.17188 10.1172-6.17188L14.0625-6.17188L14.0625-2.2168Q14.0625-1.81641 14.3115-1.55762Q14.5605-1.29883 14.9512-1.29883Q15.3516-1.29883 15.6104-1.55273Q15.8691-1.80664 15.8691-2.2168L15.8691-6.17188L19.8242-6.17188Q20.2246-6.17188 20.4785-6.4209Q20.7324-6.66992 20.7324-7.05078Q20.7324-7.46094 20.4785-7.71484Q20.2246-7.96875 19.8242-7.96875L15.8691-7.96875L15.8691-11.9141Q15.8691-12.3242 15.6104-12.583Q15.3516-12.8418 14.9512-12.8418Q14.5605-12.8418 14.3115-12.583Q14.0625-12.3242 14.0625-11.9141L14.0625-7.96875L10.1172-7.96875Q9.70703-7.96875 9.45312-7.71484Q9.19922-7.46094 9.19922-7.05078Z"/>
  </g>
  <text style="stroke:none;fill:black;font-family:sans-serif;font-size:13;font-weight:bold;" transform="matrix(1 0 0 1 263 1953)">Design Variations</text>
  <text style="stroke:none;fill:black;font-family:sans-serif;font-size:13;" transform="matrix(1 0 0 1 263 1971)">Symbols are supported in up to nine weights and three scales.</text>
  <text style="stroke:none;fill:black;font-family:sans-serif;font-size:13;" transform="matrix(1 0 0 1 263 1989)">For optimal layout with text and other symbols, vertically align</text>
  <text style="stroke:none;fill:black;font-family:sans-serif;font-size:13;" transform="matrix(1 0 0 1 263 2007)">symbols with the adjacent text.</text>
  <line style="fill:none;stroke:#00AEEF;stroke-width:0.5;opacity:1.0;" x1="776" x2="776" y1="1919" y2="1933"/>
  <g transform="matrix(1 0 0 1 776 1933)">
   <path d="M3.31055 0.15625Q3.70117 0.15625 3.91602-0.00976562Q4.13086-0.175781 4.26758-0.585938L5.52734-4.0332L11.2891-4.0332L12.5488-0.585938Q12.6855-0.175781 12.9004-0.00976562Q13.1152 0.15625 13.4961 0.15625Q13.8867 0.15625 14.1162-0.0585938Q14.3457-0.273438 14.3457-0.644531Q14.3457-0.869141 14.2383-1.17188L9.6582-13.3691Q9.48242-13.8184 9.17969-14.043Q8.87695-14.2676 8.4082-14.2676Q7.5-14.2676 7.17773-13.3789L2.59766-1.16211Q2.49023-0.859375 2.49023-0.634766Q2.49023-0.263672 2.70996-0.0537109Q2.92969 0.15625 3.31055 0.15625ZM6.00586-5.51758L8.37891-12.0898L8.42773-12.0898L10.8008-5.51758Z"/>
  </g>
  <line style="fill:none;stroke:#00AEEF;stroke-width:0.5;opacity:1.0;" x1="793.197" x2="793.197" y1="1919" y2="1933"/>
  <text style="stroke:none;fill:black;font-family:sans-serif;font-size:13;font-weight:bold;" transform="matrix(1 0 0 1 776 1953)">Margins</text>
  <text style="stroke:none;fill:black;font-family:sans-serif;font-size:13;" transform="matrix(1 0 0 1 776 1971)">Leading and trailing margins on the left and right side of each symbol</text>
  <text style="stroke:none;fill:black;font-family:sans-serif;font-size:13;" transform="matrix(1 0 0 1 776 1989)">can be adjusted by modifying the x-location of the margin guidelines.</text>
  <text style="stroke:none;fill:black;font-family:sans-serif;font-size:13;" transform="matrix(1 0 0 1 776 2007)">Modifications are automatically applied proportionally to all</text>
  <text style="stroke:none;fill:black;font-family:sans-serif;font-size:13;" transform="matrix(1 0 0 1 776 2025)">scales and weights.</text>
  <g transform="matrix(1 0 0 1 1289 1933)">
   <path d="M2.8418 1.86523L4.54102 3.57422Q5.18555 4.22852 5.90332 4.17969Q6.62109 4.13086 7.31445 3.35938L18.0078-8.42773L17.041-9.4043L6.42578 2.27539Q6.16211 2.57812 5.89355 2.61719Q5.625 2.65625 5.27344 2.30469L4.10156 1.14258Q3.75 0.791016 3.79395 0.522461Q3.83789 0.253906 4.14062-0.0195312L15.6152-10.8203L14.6387-11.7871L3.04688-0.898438Q2.30469-0.214844 2.25098 0.498047Q2.19727 1.21094 2.8418 1.86523ZM9.25781-16.3281Q8.94531-16.0254 8.90625-15.6348Q8.86719-15.2441 9.04297-14.9512Q9.21875-14.6777 9.55566-14.541Q9.89258-14.4043 10.3809-14.5215Q11.4746-14.7754 12.5977-14.7314Q13.7207-14.6875 14.7949-13.9844L14.209-12.5293Q13.9551-11.9043 14.0674-11.4404Q14.1797-10.9766 14.5801-10.5664L16.875-8.25195Q17.2363-7.88086 17.5781-7.82227Q17.9199-7.76367 18.3398-7.8418L19.4043-8.03711L20.0684-7.36328L20.0293-6.80664Q20-6.43555 20.1221-6.12305Q20.2441-5.81055 20.6055-5.44922L21.3672-4.70703Q21.7285-4.3457 22.1533-4.33105Q22.5781-4.31641 22.9297-4.66797L25.8398-7.58789Q26.1914-7.93945 26.1816-8.35449Q26.1719-8.76953 25.8105-9.13086L25.0391-9.89258Q24.6875-10.2539 24.3799-10.3857Q24.0723-10.5176 23.7109-10.4883L23.1348-10.4395L22.4902-11.0742L22.7344-12.1973Q22.832-12.6172 22.6953-12.9834Q22.5586-13.3496 22.1191-13.7891L19.9219-15.9766Q18.6719-17.2168 17.2607-17.8369Q15.8496-18.457 14.4189-18.4814Q12.9883-18.5059 11.665-17.959Q10.3418-17.4121 9.25781-16.3281ZM10.752-15.957Q11.6602-16.6211 12.7002-16.9043Q13.7402-17.1875 14.8047-17.085Q15.8691-16.9824 16.8701-16.5137Q17.8711-16.0449 18.7012-15.2051L21.1328-12.793Q21.3086-12.6172 21.3525-12.4512Q21.3965-12.2852 21.3379-12.0312L21.0156-10.5469L22.5195-9.0625L23.5059-9.12109Q23.6914-9.13086 23.7891-9.09668Q23.8867-9.0625 24.0332-8.91602L24.6094-8.33984L22.168-5.89844L21.5918-6.47461Q21.4453-6.62109 21.4062-6.71875Q21.3672-6.81641 21.377-7.01172L21.4453-7.98828L19.9512-9.47266L18.4277-9.21875Q18.1836-9.16992 18.042-9.2041Q17.9004-9.23828 17.7148-9.41406L15.7129-11.416Q15.5176-11.5918 15.4932-11.7529Q15.4688-11.9141 15.5859-12.1875L16.4648-14.2773Q15.293-15.3711 13.8281-15.791Q12.3633-16.2109 10.8398-15.7617Q10.7227-15.7324 10.6885-15.8057Q10.6543-15.8789 10.752-15.957Z"/>
  </g>
  <text style="stroke:none;fill:black;font-family:sans-serif;font-size:13;font-weight:bold;" transform="matrix(1 0 0 1 1289 1953)">Exporting</text>
  <text style="stroke:none;fill:black;font-family:sans-serif;font-size:13;" transform="matrix(1 0 0 1 1289 1971)">Symbols should be outlined when exporting to ensure the</text>
  <text style="stroke:none;fill:black;font-family:sans-serif;font-size:13;" transform="matrix(1 0 0 1 1289 1989)">design is preserved when submitting to Xcode.</text>
  <text id="template-version" style="stroke:none;fill:black;font-family:sans-serif;font-size:13;text-anchor:end;" transform="matrix(1 0 0 1 3036 1933)">Template v.3.0</text>
  <text style="stroke:none;fill:black;font-family:sans-serif;font-size:13;text-anchor:end;" transform="matrix(1 0 0 1 3036 1951)">Requires Xcode 13 or greater</text>
  <text id="descriptive-name" style="stroke:none;fill:black;font-family:sans-serif;font-size:13;text-anchor:end;" transform="matrix(1 0 0 1 3036 1969)">Generated from custom.flame</text>
  <text style="stroke:none;fill:black;font-family:sans-serif;font-size:13;text-anchor:end;" transform="matrix(1 0 0 1 3036 1987)">Typeset at 100 points</text>
  <text style="stroke:none;fill:black;font-family:sans-serif;font-size:13;" transform="matrix(1 0 0 1 263 726)">Small</text>
  <text style="stroke:none;fill:black;font-family:sans-serif;font-size:13;" transform="matrix(1 0 0 1 263 1156)">Medium</text>
  <text style="stroke:none;fill:black;font-family:sans-serif;font-size:13;" transform="matrix(1 0 0 1 263 1586)">Large</text>
 </g>
 <g id="Guides">
  <g id="H-reference" style="fill:#27AAE1;stroke:none;" transform="matrix(1 0 0 1 339 696)">
   <path d="M0.993347 0L3.6377 0L29.3282-67.1326L30.0301-67.1326L30.0301-70.459L28.1227-70.459ZM11.6882-24.4797L46.9818-24.4797L46.2311-26.7288L12.4382-26.7288ZM55.1193 0L57.7637 0L30.6381-70.459L29.4327-70.459L29.4327-67.1326Z"/>
  </g>
  <line id="Baseline-S" style="fill:none;stroke:#27AAE1;opacity:1;stroke-width:0.5;" x1="263" x2="3036" y1="696" y2="696"/>
  <line id="Capline-S" style="fill:none;stroke:#27AAE1;opacity:1;stroke-width:0.5;" x1="263" x2="3036" y1="625.541" y2="625.541"/>
  <g id="H-reference" style="fill:#27AAE1;stroke:none;" transform="matrix(1 0 0 1 339 1126)">
   <path d="M0.993347 0L3.6377 0L29.3282-67.1326L30.0301-67.1326L30.0301-70.459L28.1227-70.459ZM11.6882-24.4797L46.9818-24.4797L46.2311-26.7288L12.4382-26.7288ZM55.1193 0L57.7637 0L30.6381-70.459L29.4327-70.459L29.4327-67.1326Z"/>
  </g>
  <line id="Baseline-M" style="fill:none;stroke:#27AAE1;opacity:1;stroke-width:0.5;" x1="263" x2="3036" y1="1126" y2="1126"/>
  <line id="Capline-M" style="fill:none;stroke:#27AAE1;opacity:1;stroke-width:0.5;" x1="263" x2="3036" y1="1055.54" y2="1055.54"/>
  <g id="H-reference" style="fill:#27AAE1;stroke:none;" transform="matrix(1 0 0 1 339 1556)">
   <path d="M0.993347 0L3.6377 0L29.3282-67.1326L30.0301-67.1326L30.0301-70.459L28.1227-70.459ZM11.6882-24.4797L46.9818-24.4797L46.2311-26.7288L12.4382-26.7288ZM55.1193 0L57.7637 0L30.6381-70.459L29.4327-70.459L29.4327-67.1326Z"/>
  </g>
  <line id="Baseline-L" style="fill:none;stroke:#27AAE1;opacity:1;stroke-width:0.5;" x1="263" x2="3036" y1="1556" y2="1556"/>
  <line id="Capline-L" style="fill:none;stroke:#27AAE1;opacity:1;stroke-width:0.5;" x1="263" x2="3036" y1="1485.54" y2="1485.54"/>
  <line id="left-margin-Ultralight-S" style="fill:none;stroke:#00AEEF;stroke-width:0.5;opacity:1.0;" x1="522.624" x2="522.624" y1="600.784" y2="720.121"/>
  <line id="right-margin-Ultralight-S" style="fill:none;stroke:#00AEEF;stroke-width:0.5;opacity:1.0;" x1="596.798" x2="596.798" y1="600.784" y2="720.121"/>
  <line id="left-margin-Regular-S" style="fill:none;stroke:#00AEEF;stroke-width:0.5;opacity:1.0;" x1="1410.78" x2="1410.78" y1="600.784" y2="720.121"/>
  <line id="right-margin-Regular-S" style="fill:none;stroke:#00AEEF;stroke-width:0.5;opacity:1.0;" x1="1488.91" x2="1488.91" y1="600.784" y2="720.121"/>
  <line id="left-margin-Black-S" style="fill:none;stroke:#00AEEF;stroke-width:0.5;opacity:1.0;" x1="2890.99" x2="2890.99" y1="600.784" y2="720.121"/>
  <line id="right-margin-Black-S" style="fill:none;stroke:#00AEEF;stroke-width:0.5;opacity:1.0;" x1="2975.81" x2="2975.81" y1="600.784" y2="720.121"/>
 </g>
 <g id="Symbols">
  <g id="Black-S" transform="matrix(1 0 0 1 2890.99 696)">
   <path d="M40.4785 5.85938Q51.7578 5.85938 60.1807 1.17188Q68.6035-3.51562 73.291-11.9385Q77.9785-20.3613 77.9785-31.5918Q77.9785-42.4805 74.585-50.9277Q71.1914-59.375 65.5029-65.5029Q59.8145-71.6309 52.8809-75.5615Q45.9473-79.4922 38.7207-81.3965Q31.4941-83.3008 25.1465-83.3008Q20.9961-83.3008 18.3838-81.4941Q15.7715-79.6875 15.7715-76.3672Q15.7715-73.7793 17.7246-71.4355Q21.9238-66.2598 24.3164-62.1826Q26.709-58.1055 26.709-53.3203Q26.709-53.1738 26.709-53.0518Q26.709-52.9297 26.709-52.7832L27.7344-53.2715Q25.9766-57.0312 24.3896-58.8623Q22.8027-60.6934 21.3623-61.2793Q19.9219-61.8652 18.5059-61.8652Q16.3086-61.8652 14.9658-60.5469Q13.623-59.2285 13.623-56.7383Q13.623-55.1758 13.7695-54.0527Q13.916-52.9297 13.916-50.7812Q13.916-47.1191 12.8418-44.5068Q11.7676-41.8945 10.376-39.2578Q8.98438-36.6211 7.91016-32.9346Q6.83594-29.248 6.83594-23.3887Q6.83594-14.6484 11.0352-8.05664Q15.2344-1.46484 22.8271 2.19727Q30.4199 5.85938 40.4785 5.85938ZM40.9668-5.9082Q34.2773-5.9082 29.248-8.08105Q24.2188-10.2539 21.4355-14.209Q18.6523-18.1641 18.6523-23.3887Q18.6523-27.002 19.4824-29.5654Q20.3125-32.1289 21.3867-34.7412Q22.4609-37.3535 23.2666-41.0156Q24.0723-44.6777 24.0234-50.4883Q24.0234-51.0254 23.9746-51.5625Q23.9258-52.0996 23.9258-52.6367L21.1426-52.8809Q22.6562-49.9023 23.6572-46.3623Q24.6582-42.8223 25.0977-39.9414Q25.6836-36.4746 28.7598-36.4746Q31.4941-36.4746 33.374-39.1113Q35.2539-41.748 36.2549-45.8252Q37.2559-49.9023 37.2559-54.248Q37.2559-60.0586 35.0586-65.8203Q32.8613-71.582 29.0039-75.7324L25.6348-71.875Q34.8633-71.2402 42.2852-68.0908Q49.707-64.9414 54.9805-59.6436Q60.2539-54.3457 63.0859-47.3145Q65.918-40.2832 65.918-31.8359Q65.918-24.0234 62.793-18.2129Q59.668-12.4023 54.0771-9.15527Q48.4863-5.9082 40.9668-5.9082ZM41.6504-11.084Q45.4102-11.084 48.1934-12.6465Q50.9766-14.209 52.5391-17.041Q54.1016-19.873 54.1016-23.6328Q54.1016-27.7344 52.6855-31.3232Q51.2695-34.9121 48.6084-37.6221Q45.9473-40.332 42.2852-41.7969Q41.5039-42.0898 40.8691-41.6992Q40.2344-41.3086 40.4297-40.332Q41.1133-37.207 41.1621-34.3018Q41.2109-31.3965 39.9902-28.5156Q39.502-30.4688 38.8184-31.8359Q38.1348-33.2031 37.1582-34.2285Q36.4258-34.9121 35.7666-34.5703Q35.1074-34.2285 35.0586-33.5449Q34.8145-30.7129 33.7158-28.9795Q32.6172-27.2461 31.6162-25.4639Q30.6152-23.6816 30.6152-20.752Q30.6152-16.4062 33.6426-13.7451Q36.6699-11.084 41.6504-11.084Z"/>
  </g>
  <g id="Regular-S" transform="matrix(1 0 0 1 1410.78 696)">
   <path d="M37.1582 3.02734Q47.4121 3.02734 55.0781-1.29395Q62.7441-5.61523 67.0166-13.4033Q71.2891-21.1914 71.2891-31.5918Q71.2891-41.9434 68.1396-49.9268Q64.9902-57.9102 59.668-63.6963Q54.3457-69.4824 47.8516-73.1934Q41.3574-76.9043 34.5703-78.6865Q27.7832-80.4688 21.7285-80.4688Q18.7988-80.4688 17.041-79.4434Q15.2832-78.418 15.2832-76.3672Q15.2832-74.8047 16.6016-73.2422Q19.9707-69.2383 22.8027-64.4531Q25.6348-59.668 25.7324-53.8574Q25.7324-52.6367 25.5615-51.4893Q25.3906-50.3418 24.5117-48.7793L26.5625-49.1211Q25.7324-52.002 24.0967-54.2236Q22.4609-56.4453 20.3857-57.7393Q18.3105-59.0332 16.1621-59.0332Q14.7949-59.0332 13.9648-58.1299Q13.1348-57.2266 13.1348-55.7617Q13.1348-55.0293 13.2812-53.54Q13.4277-52.0508 13.4277-50.7812Q13.4277-47.7051 12.4268-44.9951Q11.4258-42.2852 10.1318-39.2822Q8.83789-36.2793 7.83691-32.4463Q6.83594-28.6133 6.83594-23.3887Q6.83594-15.4785 10.6201-9.52148Q14.4043-3.56445 21.2402-0.268555Q28.0762 3.02734 37.1582 3.02734ZM37.6465-3.07617Q30.2246-3.07617 24.6826-5.61523Q19.1406-8.1543 16.04-12.7197Q12.9395-17.2852 12.9395-23.3887Q12.9395-28.0762 13.9893-31.4941Q15.0391-34.9121 16.3818-37.793Q17.7246-40.6738 18.7744-43.5547Q19.8242-46.4355 19.8242-49.9512Q19.8242-51.123 19.5801-52.0508Q19.3359-52.9785 19.0918-53.7109L18.1641-52.0508Q20.5566-50.4395 21.9727-47.7295Q23.3887-45.0195 24.1699-40.9668Q24.4629-39.6484 25.4883-39.6484Q27.2461-39.6484 28.4912-41.9922Q29.7363-44.3359 30.4199-47.4609Q31.1035-50.5859 31.1035-53.0273Q31.1035-59.8633 28.418-66.1133Q25.7324-72.3633 21.2402-76.1719L20.0195-74.8047Q30.4688-74.4629 38.7939-71.0938Q47.1191-67.7246 52.9541-61.9385Q58.7891-56.1523 61.8652-48.4619Q64.9414-40.7715 64.9414-31.8359Q64.9414-23.1934 61.5234-16.7236Q58.1055-10.2539 51.9531-6.66504Q45.8008-3.07617 37.6465-3.07617ZM38.1348-7.71484Q42.8223-7.71484 45.8984-9.76562Q48.9746-11.8164 50.4883-15.1367Q52.002-18.457 52.002-22.3145Q52.002-26.1719 50.5371-30.0537Q49.0723-33.9355 46.1914-37.2314Q43.3105-40.5273 38.9648-42.5293Q38.7207-42.627 38.5742-42.5049Q38.4277-42.3828 38.4277-42.0898Q38.8672-37.3535 38.1836-33.2031Q37.5-29.0527 35.9375-26.9043Q35.2539-28.6133 34.3506-30.0781Q33.4473-31.543 32.0801-32.7637Q31.8848-32.9102 31.7139-32.8613Q31.543-32.8125 31.543-32.5195Q31.2012-30.2734 29.8584-28.4668Q28.5156-26.6602 27.2461-24.4141Q25.9766-22.168 25.9766-18.75Q25.9766-13.7695 29.3213-10.7422Q32.666-7.71484 38.1348-7.71484Z"/>
  </g>
  <g id="Ultralight-S" transform="matrix(1 0 0 1 522.624 696)">
   <path d="M35.6598 1.07498Q45.1416 1.07498 52.2854-2.97394Q59.4292-7.02286 63.3839-14.3795Q67.3386-21.7361 67.3386-31.5918Q67.3386-41.4436 64.3253-49.0864Q61.3121-56.7291 56.2168-62.2883Q51.1215-67.8474 44.7865-71.4451Q38.4514-75.0427 31.6868-76.7796Q24.9222-78.5164 18.6859-78.5164Q16.9373-78.5164 16.1102-77.9678Q15.2832-77.4193 15.2832-76.3672Q15.2832-75.6218 16.1926-74.514Q19.7433-70.2827 22.6437-65.1798Q25.544-60.0769 25.5508-55.1292Q25.5508-53.2722 24.9714-51.58Q24.3919-49.8878 23.1949-48.3704L24.4736-48.7122Q23.5527-51.2756 21.6671-53.1567Q19.7815-55.0377 17.7292-56.0593Q15.6769-57.0808 14.2097-57.0808Q13.7054-57.0808 13.4201-56.7451Q13.1348-56.4095 13.1348-55.8983Q13.1348-55.1201 13.2812-53.6083Q13.4277-52.0966 13.4277-50.7812Q13.4277-46.8422 12.4268-43.8824Q11.4258-40.9225 10.1318-38.0787Q8.83789-35.2348 7.83691-31.765Q6.83594-28.2951 6.83594-23.3887Q6.83594-16.0233 10.3931-10.5206Q13.9503-5.01785 20.4227-1.97144Q26.8951 1.07498 35.6598 1.07498ZM35.6941-1.07803Q27.7725-1.07803 21.7766-3.88947Q15.7806-6.7009 12.4073-11.7432Q9.03397-16.7854 9.03397-23.3887Q9.03397-28.3035 10.0159-31.5395Q10.9978-34.7755 12.2498-37.4523Q13.5017-40.1291 14.4833-43.1915Q15.4648-46.254 15.4648-50.8141Q15.4648-51.8494 15.3568-53.0952Q15.2489-54.3411 15.0505-55.7541L14.4859-54.9118Q16.4696-54.5715 19.0891-52.4746Q21.7087-50.3777 22.8981-47.0062Q23.1911-46.3692 23.7175-46.3692Q24.3851-46.3692 25.3124-47.5548Q26.2398-48.7404 26.9234-50.753Q27.607-52.7657 27.607-55.2521Q27.607-60.5896 25.0805-65.3866Q22.554-70.1836 17.3347-76.6716L17.0677-76.1215Q26.7906-76.3245 35.4565-73.2281Q44.1223-70.1317 50.7519-64.1865Q57.3814-58.2413 61.1614-49.9832Q64.9414-41.7252 64.9414-31.6086Q64.9414-22.5578 61.2511-15.6792Q57.5607-8.80051 50.9769-4.93927Q44.3932-1.07803 35.6941-1.07803ZM36.0458-9.71298Q40.1428-9.71298 42.8333-11.4914Q45.5238-13.2698 46.833-16.1587Q48.1422-19.0475 48.1422-22.451Q48.1422-25.8087 46.8361-29.1683Q45.5299-32.5279 43.0126-35.3699Q40.4953-38.2118 36.7851-40.0772Q36.541-40.1749 36.4174-40.0528Q36.2938-39.9307 36.3388-39.7285Q37.0506-35.2196 36.5032-31.7276Q35.9558-28.2356 34.5749-26.4503Q33.8463-27.887 32.9201-29.2156Q31.9939-30.5443 30.7632-31.5376Q30.6129-31.6841 30.4649-31.6353Q30.3169-31.5865 30.2711-31.3385Q29.9751-29.4106 28.7914-27.8084Q27.6077-26.2062 26.5423-24.2554Q25.4768-22.3045 25.4768-19.2947Q25.4768-14.9956 28.3676-12.3543Q31.2584-9.71298 36.0458-9.71298Z"/>
  </g>
 </g>
</svg>
